<svg data-name="Ebene 1" xmlns="http://www.w3.org/2000/svg" viewBox="0 0 283.46 283.46" fill="#ffffff"><path class="prefix__cls-1" d="M51.9 210v-40.75c0-13.87-2.62-31 8.08-40.91 8-7.39 20.83-7.87 30-1.41 4.59 3.24 7.91 9 9.22 15.36 1.4 6.85.57 14.51.57 21.47v46.37c0 9.65 15 9.67 15 0v-44.74c0-17.18 1.13-35.76-13.09-48.22a39.75 39.75 0 00-45.09-4.71 37.7 37.7 0 00-16.17 18.41c-3.56 8.5-3.48 17.4-3.48 26.44V210c0 9.66 15 9.67 15 0z"/><path class="prefix__cls-1" d="M114.73 209.26v-52.65c0-5.67-.42-11.47 1-17 5.36-20.41 32.58-24.18 43-6.85 3.16 5.29 3.8 11.18 3.86 17.4.08 8.44.79 16.84 1 25.28.33 13.71 5 26.15 16.44 34.39 19.38 14 50.55 8.63 61.8-13.24 6.54-12.72 4.77-27.79 4.77-41.62V119.8c0-9.65-15-9.67-15 0v50.3c0 5.15.23 10.24-1.27 15.22-5.88 19.57-33.5 22.93-46.1 8.23-7.27-8.47-6-23.52-6.45-35-.55-15.26-.53-30.38-12.66-41.56-18.37-16.93-50-12-60.93 11-6.58 13.77-4.43 30.43-4.43 45.26v36c0 9.65 15 9.67 15 0zM175.57 89.44c.09-8.61 2.75-16 8.74-21.54 5.05-4.66 12.36-7 19.26-7.06 6.73 0 14 2.15 18.94 6.59 6.27 5.6 9 13.19 9.06 22 .11 9.65 15.11 9.67 15 0-.22-19-10.74-35.7-29.24-41.57-15.76-5-34.87-.73-46 11.82C164 68 160.69 78.47 160.57 89.44c-.12 9.66 14.88 9.67 15 0z"/><path class="prefix__cls-1" d="M203.57 98.3c11.58 0 11.6-18 0-18s-11.61 18 0 18z"/></svg>